<?xml version="1.0" encoding="UTF-8"?>
<svg version="1.1" xmlns="http://www.w3.org/2000/svg" width="225" height="225">
<path d="M0 0 C74.25 0 148.5 0 225 0 C225 74.25 225 148.5 225 225 C150.75 225 76.5 225 0 225 C0 150.75 0 76.5 0 0 Z " fill="#FEFDFD" transform="translate(0,0)"/>
<path d="M0 0 C3.38297674 1.391748 4.7828982 2.74666819 6.59375 5.90234375 C7.06022949 6.7001123 7.52670898 7.49788086 8.00732422 8.31982422 C8.74619873 9.61557373 8.74619873 9.61557373 9.5 10.9375 C10.57362573 12.77324507 11.64919441 14.607855 12.7265625 16.44140625 C13.54495605 17.83963623 13.54495605 17.83963623 14.37988281 19.26611328 C16.80113488 23.35188493 19.32703296 27.36739783 21.875 31.375 C22.36492432 32.147229 22.85484863 32.91945801 23.35961914 33.71508789 C25.46207784 37.02380298 27.57127832 40.32819898 29.68017578 43.6328125 C36.52732497 54.36252526 43.33761809 65.11018907 50.02172852 75.94238281 C54.28442003 82.85023532 58.57317986 89.74144754 62.875 96.625 C63.48142334 97.59614746 64.08784668 98.56729492 64.71264648 99.56787109 C65.59351929 100.97673584 65.59351929 100.97673584 66.4921875 102.4140625 C67.06420898 103.3309082 67.63623047 104.24775391 68.22558594 105.19238281 C69.4665916 107.15599937 70.72670385 109.10761157 72.00097656 111.04980469 C72.64260742 112.03110352 73.28423828 113.01240234 73.9453125 114.0234375 C74.82340576 115.34867432 74.82340576 115.34867432 75.71923828 116.70068359 C77 119 77 119 77 122 C27.17 122 -22.66 122 -74 122 C-73.12736106 117.63680532 -72.19850309 115.06689623 -70.125 111.25 C-69.61195312 110.28578125 -69.09890625 109.3215625 -68.5703125 108.328125 C-67 106 -67 106 -64 105 C-64.99 104.67 -65.98 104.34 -67 104 C-63.25 101 -63.25 101 -61 101 C-61 100.34 -61 99.68 -61 99 C-63.97 99.495 -63.97 99.495 -67 100 C-65.625 98.5 -65.625 98.5 -64 97 C-63.34 97 -62.68 97 -62 97 C-62.185625 96.278125 -62.37125 95.55625 -62.5625 94.8125 C-63 92 -63 92 -62.4375 89.3125 C-62.293125 88.549375 -62.14875 87.78625 -62 87 C-62.66 86.34 -63.32 85.68 -64 85 C-63.34 85 -62.68 85 -62 85 C-62.33 84.01 -62.66 83.02 -63 82 C-65.01508358 81.26676204 -65.01508358 81.26676204 -67 81 C-65.68 80.01 -64.36 79.02 -63 78 C-63.66 77.34 -64.32 76.68 -65 76 C-63.515 75.01 -63.515 75.01 -62 74 C-61.26656572 70.93443402 -61.26656572 70.93443402 -61 68 C-60.34 68 -59.68 68 -59 68 C-58.06576355 71.01031744 -57.95550089 71.86650268 -59 75 C-58.34 75.33 -57.68 75.66 -57 76 C-57.185625 76.5775 -57.37125 77.155 -57.5625 77.75 C-58.04023546 80.20692525 -57.75729364 81.64397534 -57 84 C-56.01 84 -55.02 84 -54 84 C-54 84.66 -54 85.32 -54 86 C-55.485 86.495 -55.485 86.495 -57 87 C-56.34 87.66 -55.68 88.32 -55 89 C-56.32 89 -57.64 89 -59 89 C-59 89.66 -59 90.32 -59 91 C-58.34 91.33 -57.68 91.66 -57 92 C-57.33 93.32 -57.66 94.64 -58 96 C-56.35 95.01 -54.7 94.02 -53 93 C-53.495 92.01 -53.495 92.01 -54 91 C-54 88 -54 88 -53 85.625 C-51.95292139 82.87641865 -51.83363829 80.91132993 -52 78 C-52.66 77.67 -53.32 77.34 -54 77 C-57.22817277 71.16445692 -57.27227206 66.62528668 -57 60 C-51.39 59.01 -45.78 58.02 -40 57 C-45.28 56.67 -50.56 56.34 -56 56 C-55.03851958 49.26963706 -54.47276185 47.26176038 -51 42 C-50.01 41.505 -50.01 41.505 -49 41 C-48.33001315 39.66833193 -47.66371519 38.33480499 -47 37 C-41.3747813 30.41478889 -32.87616125 26.41067883 -24.3359375 25.69140625 C-21.20646388 25.68799724 -18.12059004 25.77350556 -15 26 C-14.72744385 25.26934326 -14.4548877 24.53868652 -14.17407227 23.78588867 C-13.05088062 21.1207317 -11.77436586 18.85569823 -10.21484375 16.42578125 C-9.68439453 15.59369141 -9.15394531 14.76160156 -8.60742188 13.90429688 C-7.78081055 12.62135742 -7.78081055 12.62135742 -6.9375 11.3125 C-5.84171306 9.60073061 -4.74662601 7.88851292 -3.65234375 6.17578125 C-3.16757568 5.42208252 -2.68280762 4.66838379 -2.18334961 3.8918457 C-0.96869037 2.01668656 -0.96869037 2.01668656 0 0 Z " fill="#F8F8F7" transform="translate(110,40)"/>
<path d="M0 0 C3.38297674 1.391748 4.7828982 2.74666819 6.59375 5.90234375 C7.06022949 6.7001123 7.52670898 7.49788086 8.00732422 8.31982422 C8.74619873 9.61557373 8.74619873 9.61557373 9.5 10.9375 C10.57362573 12.77324507 11.64919441 14.607855 12.7265625 16.44140625 C13.54495605 17.83963623 13.54495605 17.83963623 14.37988281 19.26611328 C16.80113488 23.35188493 19.32703296 27.36739783 21.875 31.375 C22.36492432 32.147229 22.85484863 32.91945801 23.35961914 33.71508789 C25.46207784 37.02380298 27.57127832 40.32819898 29.68017578 43.6328125 C36.52732497 54.36252526 43.33761809 65.11018907 50.02172852 75.94238281 C54.28442003 82.85023532 58.57317986 89.74144754 62.875 96.625 C63.48142334 97.59614746 64.08784668 98.56729492 64.71264648 99.56787109 C65.59351929 100.97673584 65.59351929 100.97673584 66.4921875 102.4140625 C67.06420898 103.3309082 67.63623047 104.24775391 68.22558594 105.19238281 C69.4665916 107.15599937 70.72670385 109.10761157 72.00097656 111.04980469 C72.64260742 112.03110352 73.28423828 113.01240234 73.9453125 114.0234375 C74.82340576 115.34867432 74.82340576 115.34867432 75.71923828 116.70068359 C77 119 77 119 77 122 C27.17 122 -22.66 122 -74 122 C-73.12736106 117.63680532 -72.19850309 115.06689623 -70.125 111.25 C-69.61195312 110.28578125 -69.09890625 109.3215625 -68.5703125 108.328125 C-67 106 -67 106 -64 105 C-64.99 104.67 -65.98 104.34 -67 104 C-63.25 101 -63.25 101 -61 101 C-61 100.34 -61 99.68 -61 99 C-63.97 99.495 -63.97 99.495 -67 100 C-65.625 98.5 -65.625 98.5 -64 97 C-63.34 97 -62.68 97 -62 97 C-62.185625 96.278125 -62.37125 95.55625 -62.5625 94.8125 C-63 92 -63 92 -62.4375 89.3125 C-62.293125 88.549375 -62.14875 87.78625 -62 87 C-62.66 86.34 -63.32 85.68 -64 85 C-63.34 85 -62.68 85 -62 85 C-62.33 84.01 -62.66 83.02 -63 82 C-65.01508358 81.26676204 -65.01508358 81.26676204 -67 81 C-65.68 80.01 -64.36 79.02 -63 78 C-63.66 77.34 -64.32 76.68 -65 76 C-63.515 75.01 -63.515 75.01 -62 74 C-61.26656572 70.93443402 -61.26656572 70.93443402 -61 68 C-60.34 68 -59.68 68 -59 68 C-58.06576355 71.01031744 -57.95550089 71.86650268 -59 75 C-58.34 75.33 -57.68 75.66 -57 76 C-57.185625 76.5775 -57.37125 77.155 -57.5625 77.75 C-58.04023546 80.20692525 -57.75729364 81.64397534 -57 84 C-56.01 84 -55.02 84 -54 84 C-54 84.66 -54 85.32 -54 86 C-55.485 86.495 -55.485 86.495 -57 87 C-56.34 87.66 -55.68 88.32 -55 89 C-56.32 89 -57.64 89 -59 89 C-59 89.66 -59 90.32 -59 91 C-58.34 91.33 -57.68 91.66 -57 92 C-57.33 93.32 -57.66 94.64 -58 96 C-56.35 95.01 -54.7 94.02 -53 93 C-53.495 92.01 -53.495 92.01 -54 91 C-54 88 -54 88 -53.00390625 85.78125 C-51.72000931 82.22430595 -51.843213 79.27148008 -51.9375 75.5 C-52.03756953 71.14915093 -52.05064874 67.23517321 -51 63 C-48.5705484 66.6441774 -48.83820425 68.71241272 -49 73 C-48.34 73.33 -47.68 73.66 -47 74 C-47.66 74 -48.32 74 -49 74 C-48.34 75.98 -47.68 77.96 -47 80 C-47.66 80 -48.32 80 -49 80 C-48.65213292 81.97536745 -48.65213292 81.97536745 -48 84 C-47.34 84.33 -46.68 84.66 -46 85 C-46 85.99 -46 86.98 -46 88 C-45.34 88.66 -44.68 89.32 -44 90 C-44.99 90 -45.98 90 -47 90 C-46.34 91.98 -45.68 93.96 -45 96 C-44.525625 95.484375 -44.05125 94.96875 -43.5625 94.4375 C-39.69002384 92.26513533 -36.24770076 93.24666846 -32 94 C-31.979375 92.72125 -31.95875 91.4425 -31.9375 90.125 C-31.92589844 89.40570313 -31.91429687 88.68640625 -31.90234375 87.9453125 C-31.87350758 85.91814596 -31.87350758 85.91814596 -33 84 C-32.071875 83.4225 -31.14375 82.845 -30.1875 82.25 C-26.21655337 79.44697885 -24.59145365 77.18290729 -22.4375 72.875 C-21 70 -21 70 -19 68 C-20.70625501 65.21611025 -21.47626739 64.14615794 -24.6875 63.25 C-25.450625 63.1675 -26.21375 63.085 -27 63 C-27 62.67 -27 62.34 -27 62 C-21.36529617 61.4502728 -18.61012242 63.04952165 -14 66 C-13.97301578 68.43757413 -13.95316901 70.87484915 -13.9375 73.3125 C-13.92912109 74.00279297 -13.92074219 74.69308594 -13.91210938 75.40429688 C-13.89692094 78.5483025 -13.99806673 80.99420019 -15 84 C-14.0925 83.690625 -13.185 83.38125 -12.25 83.0625 C-9.86182795 82.28175145 -7.43753666 81.60938416 -5 81 C-5.495 76.545 -5.495 76.545 -6 72 C-7.32 72.33 -8.64 72.66 -10 73 C-12.40814077 69.48812804 -13.36629408 67.27343092 -13 63 C-11.68 63 -10.36 63 -9 63 C-8.731875 62.236875 -8.46375 61.47375 -8.1875 60.6875 C-7.01888538 58.0427406 -5.99065202 56.99065202 -4 55 C-2.80972016 52.40084462 -2.80972016 52.40084462 -2 50 C-0.35 50 1.3 50 3 50 C3 50.66 3 51.32 3 52 C3.66 52 4.32 52 5 52 C4.25 54.9375 4.25 54.9375 3 58 C0.875 58.875 0.875 58.875 -1 59 C-1 60.32 -1 61.64 -1 63 C2.3 62.34 5.6 61.68 9 61 C9 62.32 9 63.64 9 65 C6.36 66.32 3.72 67.64 1 69 C1 70.98 1 72.96 1 75 C2.57925975 75.39180108 4.16368794 75.76280736 5.75 76.125 C6.63171875 76.33382812 7.5134375 76.54265625 8.421875 76.7578125 C11.39779001 77.03736815 12.43709567 76.40647189 15 75 C16.32 75 17.64 75 19 75 C18.67422369 82.16707877 15.34556372 87.76927124 12 94 C13.485 94.495 13.485 94.495 15 95 C14.030625 95.2475 13.06125 95.495 12.0625 95.75 C11.051875 96.1625 10.04125 96.575 9 97 C8.03122943 99.03243548 8.03122943 99.03243548 8 101 C9.32 100.67 10.64 100.34 12 100 C11.28738609 104.2838744 9.93024731 108.25148262 8.4375 112.3125 C7.633125 114.519375 6.82875 116.72625 6 119 C12.27 119 18.54 119 25 119 C24.67 117.35 24.34 115.7 24 114 C22.02 114.33 20.04 114.66 18 115 C18 114.34 18 113.68 18 113 C18.969375 112.71125 19.93875 112.4225 20.9375 112.125 C24.10664203 111.35785318 24.10664203 111.35785318 25 109 C21.535 109.495 21.535 109.495 18 110 C19.39195915 107.2160817 21.15575779 107.02101003 24 106 C24 105.67 24 105.34 24 105 C22.02 105 20.04 105 18 105 C19.3899131 102.22017379 21.18658353 102.12536659 24 101 C24.33 100.34 24.66 99.68 25 99 C21.535 99.495 21.535 99.495 18 100 C19.3899131 97.22017379 21.18658353 97.12536659 24 96 C24.33 95.34 24.66 94.68 25 94 C21.535 94.495 21.535 94.495 18 95 C19.39195915 92.2160817 21.15575779 92.02101003 24 91 C24 90.34 24 89.68 24 89 C22.35 89.33 20.7 89.66 19 90 C19.804375 89.278125 20.60875 88.55625 21.4375 87.8125 C24.02292072 84.97484311 24.68042813 83.72833853 25 80 C25.99 80 26.98 80 28 80 C28.2475 80.9075 28.495 81.815 28.75 82.75 C30.03981342 86.10351489 31.31971042 87.67708236 34 90 C32.35 89.67 30.7 89.34 29 89 C29.33 89.99 29.66 90.98 30 92 C32.01508358 92.73323796 32.01508358 92.73323796 34 93 C34 93.66 34 94.32 34 95 C32.02 94.67 30.04 94.34 28 94 C28.61875 94.61875 29.2375 95.2375 29.875 95.875 C31.25 97.25 32.625 98.625 34 100 C32.02 99.67 30.04 99.34 28 99 C28 99.99 28 100.98 28 102 C29.98 102.33 31.96 102.66 34 103 C34 103.66 34 104.32 34 105 C32.02 104.67 30.04 104.34 28 104 C29.63473516 107.12474627 29.63473516 107.12474627 32.125 107.6875 C32.74375 107.790625 33.3625 107.89375 34 108 C34 108.66 34 109.32 34 110 C32.02 109.67 30.04 109.34 28 109 C29.66954819 112.22404978 29.66954819 112.22404978 32.625 112.6875 C33.40875 112.790625 34.1925 112.89375 35 113 C35 113.66 35 114.32 35 115 C32.69 114.67 30.38 114.34 28 114 C28 115.65 28 117.3 28 119 C33.28 119 38.56 119 44 119 C43.67 117.68 43.34 116.36 43 115 C42.67 115.33 42.34 115.66 42 116 C40.33382885 116.04063832 38.66611905 116.042721 37 116 C37 115.34 37 114.68 37 114 C38.98 113.34 40.96 112.68 43 112 C41.93354885 110.70366379 41.93354885 110.70366379 39.4375 110.9375 C38.633125 110.958125 37.82875 110.97875 37 111 C37 110.34 37 109.68 37 109 C37.78375 108.9175 38.5675 108.835 39.375 108.75 C42.14749104 108.27193661 42.14749104 108.27193661 43.3125 105.9375 C43.539375 105.298125 43.76625 104.65875 44 104 C42.35 104.33 40.7 104.66 39 105 C39 104.34 39 103.68 39 103 C39.99 102.67 40.98 102.34 42 102 C43.71567661 98.49705129 43.71567661 98.49705129 45 95 C45.66 95.33 46.32 95.66 47 96 C47.309375 96.969375 47.61875 97.93875 47.9375 98.9375 C48.74744122 102.2680443 48.74744122 102.2680443 52 104 C52 104.66 52 105.32 52 106 C50.02 105.505 50.02 105.505 48 105 C48.33 105.99 48.66 106.98 49 108 C51.01508358 108.73323796 51.01508358 108.73323796 53 109 C53 109.66 53 110.32 53 111 C51.35 111 49.7 111 48 111 C48.33 111.66 48.66 112.32 49 113 C51.02463255 113.65213292 51.02463255 113.65213292 53 114 C53 114.66 53 115.32 53 116 C51.02 115.67 49.04 115.34 47 115 C47 116.32 47 117.64 47 119 C55.58 119 64.16 119 73 119 C66.14934021 107.42474725 58.99399121 96.07005345 51.74902344 84.73828125 C44.77087725 73.81325506 37.87753661 62.84239441 31.14160156 51.76635742 C26.37342434 43.94084681 21.47037992 36.20262458 16.56005859 28.46582031 C14.91429011 25.86452741 13.27843061 23.25720025 11.64453125 20.6484375 C11.09724365 19.77630615 10.54995605 18.9041748 9.98608398 18.00561523 C8.93282339 16.32668688 7.88147209 14.64655885 6.83227539 12.96508789 C6.35910889 12.21219482 5.88594238 11.45930176 5.3984375 10.68359375 C4.98255371 10.01900146 4.56666992 9.35440918 4.13818359 8.66967773 C2.97262103 6.84863084 2.97262103 6.84863084 1 5 C0.34644531 6.03447266 0.34644531 6.03447266 -0.3203125 7.08984375 C-2.20575141 10.06491944 -4.10285526 13.032378 -6 16 C-6.55945313 16.89074219 -7.11890625 17.78148438 -7.6953125 18.69921875 C-8.20835938 19.49972656 -8.72140625 20.30023438 -9.25 21.125 C-9.70890625 21.84945312 -10.1678125 22.57390625 -10.640625 23.3203125 C-12 25 -12 25 -15 26 C-13.71026258 22.54252773 -12.20666855 19.52927613 -10.21484375 16.42578125 C-9.68439453 15.59369141 -9.15394531 14.76160156 -8.60742188 13.90429688 C-7.78081055 12.62135742 -7.78081055 12.62135742 -6.9375 11.3125 C-5.84171306 9.60073061 -4.74662601 7.88851292 -3.65234375 6.17578125 C-3.16757568 5.42208252 -2.68280762 4.66838379 -2.18334961 3.8918457 C-0.96869037 2.01668656 -0.96869037 2.01668656 0 0 Z " fill="#14282A" transform="translate(110,40)"/>
<path d="M0 0 C0.495 0.99 0.495 0.99 1 2 C2.67144537 2.4680047 4.34409896 2.93225425 6.0234375 3.37109375 C10.58498302 4.8224946 14.87980375 7.32918088 18 11 C16.68 11.33 15.36 11.66 14 12 C16.31 12.33 18.62 12.66 21 13 C21.99 15.475 21.99 15.475 23 18 C22.34 18.33 21.68 18.66 21 19 C21.763125 19.185625 22.52625 19.37125 23.3125 19.5625 C26.37558734 21.20089555 27.2964905 22.68840728 28.5078125 25.9140625 C29.37661181 29.59611672 29.22990699 33.24485248 29 37 C28.443125 36.98839844 27.88625 36.97679687 27.3125 36.96484375 C22.10221657 36.90323567 17.1562049 37.25000656 12 38 C12 36.68 12 35.36 12 34 C13.98 33.505 13.98 33.505 16 33 C16.144375 32.38125 16.28875 31.7625 16.4375 31.125 C17 29 17 29 18 27 C17.34 27 16.68 27 16 27 C16 26.34 16 25.68 16 25 C14.35 25.33 12.7 25.66 11 26 C10.7525 26.9075 10.505 27.815 10.25 28.75 C8.94810052 32.13493865 7.64835863 33.60793414 5 36 C4.505 36.99 4.505 36.99 4 38 C2.68 38 1.36 38 0 38 C0.94933899 41.35433109 1.89748835 44.69246505 3 48 C4.98 47.505 4.98 47.505 7 47 C7.495 51.455 7.495 51.455 8 56 C2.04296875 59.22265625 2.04296875 59.22265625 0 60 C-0.99 59.67 -1.98 59.34 -3 59 C-2.34 56.36 -1.68 53.72 -1 51 C-1.99 50.505 -1.99 50.505 -3 50 C-2.34 50 -1.68 50 -1 50 C-1.495 45.545 -1.495 45.545 -2 41 C-2.66 41 -3.32 41 -4 41 C-4 40.34 -4 39.68 -4 39 C-5.65 38.67 -7.3 38.34 -9 38 C-7.68 39.65 -6.36 41.3 -5 43 C-5.598125 43.70125 -6.19625 44.4025 -6.8125 45.125 C-9.07907962 47.87702732 -9.07907962 47.87702732 -10.3125 50.9375 C-12.50679533 54.91973967 -15.44054071 57.249952 -19 60 C-18.814375 60.7425 -18.62875 61.485 -18.4375 62.25 C-18.0013083 64.99177639 -18.24797558 66.39298201 -19 69 C-19.90492187 68.94779297 -19.90492187 68.94779297 -20.828125 68.89453125 C-25.92525488 68.6485551 -25.92525488 68.6485551 -30.5625 70.5 C-31.036875 70.995 -31.51125 71.49 -32 72 C-32.66 71.01 -33.32 70.02 -34 69 C-33.814375 68.29875 -33.62875 67.5975 -33.4375 66.875 C-32.86546981 63.11594445 -33.95826138 60.67750306 -35.30859375 57.18359375 C-36 55 -36 55 -36 51 C-36.15001445 49.08195815 -36.31759684 47.16523314 -36.5 45.25 C-36.665 43.5175 -36.83 41.785 -37 40 C-37.66 44.29 -38.32 48.58 -39 53 C-41.66454856 51.66772572 -42.2920119 49.86568737 -43.40234375 47.1875 C-44.50912679 43.13652938 -44.17143631 39.17161698 -44 35 C-38.39 34.01 -32.78 33.02 -27 32 C-32.28 31.67 -37.56 31.34 -43 31 C-42.03851958 24.26963706 -41.47276185 22.26176038 -38 17 C-37.34 16.67 -36.68 16.34 -36 16 C-35.33001315 14.66833193 -34.66371519 13.33480499 -34 12 C-27.68038665 4.60188977 -18.29539002 1.0542955 -8.80664062 0.30395508 C-5.87159735 0.13776139 -2.93924661 0.04416901 0 0 Z " fill="#F38805" transform="translate(97,65)"/>
<path d="M0 0 C3.38297674 1.391748 4.7828982 2.74666819 6.59375 5.90234375 C7.06022949 6.7001123 7.52670898 7.49788086 8.00732422 8.31982422 C8.74619873 9.61557373 8.74619873 9.61557373 9.5 10.9375 C10.57362573 12.77324507 11.64919441 14.607855 12.7265625 16.44140625 C13.54495605 17.83963623 13.54495605 17.83963623 14.37988281 19.26611328 C16.80113488 23.35188493 19.32703296 27.36739783 21.875 31.375 C22.36492432 32.147229 22.85484863 32.91945801 23.35961914 33.71508789 C25.46207784 37.02380298 27.57127832 40.32819898 29.68017578 43.6328125 C36.52732497 54.36252526 43.33761809 65.11018907 50.02172852 75.94238281 C54.28442003 82.85023532 58.57317986 89.74144754 62.875 96.625 C63.48142334 97.59614746 64.08784668 98.56729492 64.71264648 99.56787109 C65.59351929 100.97673584 65.59351929 100.97673584 66.4921875 102.4140625 C67.06420898 103.3309082 67.63623047 104.24775391 68.22558594 105.19238281 C69.4665916 107.15599937 70.72670385 109.10761157 72.00097656 111.04980469 C72.64260742 112.03110352 73.28423828 113.01240234 73.9453125 114.0234375 C74.82340576 115.34867432 74.82340576 115.34867432 75.71923828 116.70068359 C77 119 77 119 77 122 C27.17 122 -22.66 122 -74 122 C-74 121.67 -74 121.34 -74 121 C-34.895 120.505 -34.895 120.505 5 120 C5.33 119.34 5.66 118.68 6 118 C12.27 118.33 18.54 118.66 25 119 C24.67 117.35 24.34 115.7 24 114 C22.02 114.33 20.04 114.66 18 115 C18 114.34 18 113.68 18 113 C18.969375 112.71125 19.93875 112.4225 20.9375 112.125 C24.10664203 111.35785318 24.10664203 111.35785318 25 109 C21.535 109.495 21.535 109.495 18 110 C19.39195915 107.2160817 21.15575779 107.02101003 24 106 C24 105.67 24 105.34 24 105 C22.02 105 20.04 105 18 105 C19.3899131 102.22017379 21.18658353 102.12536659 24 101 C24.33 100.34 24.66 99.68 25 99 C21.535 99.495 21.535 99.495 18 100 C19.3899131 97.22017379 21.18658353 97.12536659 24 96 C24.33 95.34 24.66 94.68 25 94 C21.535 94.495 21.535 94.495 18 95 C19.39195915 92.2160817 21.15575779 92.02101003 24 91 C24 90.34 24 89.68 24 89 C22.35 89.33 20.7 89.66 19 90 C19.804375 89.278125 20.60875 88.55625 21.4375 87.8125 C24.02292072 84.97484311 24.68042813 83.72833853 25 80 C25.99 80 26.98 80 28 80 C28.2475 80.9075 28.495 81.815 28.75 82.75 C30.03981342 86.10351489 31.31971042 87.67708236 34 90 C32.35 89.67 30.7 89.34 29 89 C29.33 89.99 29.66 90.98 30 92 C32.01508358 92.73323796 32.01508358 92.73323796 34 93 C34 93.66 34 94.32 34 95 C32.02 94.67 30.04 94.34 28 94 C28.61875 94.61875 29.2375 95.2375 29.875 95.875 C31.25 97.25 32.625 98.625 34 100 C32.02 99.67 30.04 99.34 28 99 C28 99.99 28 100.98 28 102 C29.98 102.33 31.96 102.66 34 103 C34 103.66 34 104.32 34 105 C32.02 104.67 30.04 104.34 28 104 C29.63473516 107.12474627 29.63473516 107.12474627 32.125 107.6875 C32.74375 107.790625 33.3625 107.89375 34 108 C34 108.66 34 109.32 34 110 C32.02 109.67 30.04 109.34 28 109 C29.66954819 112.22404978 29.66954819 112.22404978 32.625 112.6875 C33.40875 112.790625 34.1925 112.89375 35 113 C35 113.66 35 114.32 35 115 C32.69 114.67 30.38 114.34 28 114 C28 115.65 28 117.3 28 119 C33.28 119 38.56 119 44 119 C43.67 117.68 43.34 116.36 43 115 C42.67 115.33 42.34 115.66 42 116 C40.33382885 116.04063832 38.66611905 116.042721 37 116 C37 115.34 37 114.68 37 114 C38.98 113.34 40.96 112.68 43 112 C41.93354885 110.70366379 41.93354885 110.70366379 39.4375 110.9375 C38.633125 110.958125 37.82875 110.97875 37 111 C37 110.34 37 109.68 37 109 C37.78375 108.9175 38.5675 108.835 39.375 108.75 C42.14749104 108.27193661 42.14749104 108.27193661 43.3125 105.9375 C43.539375 105.298125 43.76625 104.65875 44 104 C42.35 104.33 40.7 104.66 39 105 C39 104.34 39 103.68 39 103 C39.99 102.67 40.98 102.34 42 102 C43.71567661 98.49705129 43.71567661 98.49705129 45 95 C45.66 95.33 46.32 95.66 47 96 C47.309375 96.969375 47.61875 97.93875 47.9375 98.9375 C48.74744122 102.2680443 48.74744122 102.2680443 52 104 C52 104.66 52 105.32 52 106 C50.02 105.505 50.02 105.505 48 105 C48.33 105.99 48.66 106.98 49 108 C51.01508358 108.73323796 51.01508358 108.73323796 53 109 C53 109.66 53 110.32 53 111 C51.35 111 49.7 111 48 111 C48.33 111.66 48.66 112.32 49 113 C51.02463255 113.65213292 51.02463255 113.65213292 53 114 C53 114.66 53 115.32 53 116 C51.02 115.67 49.04 115.34 47 115 C47 116.32 47 117.64 47 119 C55.58 119 64.16 119 73 119 C66.14934021 107.42474725 58.99399121 96.07005345 51.74902344 84.73828125 C44.77087725 73.81325506 37.87753661 62.84239441 31.14160156 51.76635742 C26.37342434 43.94084681 21.47037992 36.20262458 16.56005859 28.46582031 C14.91429011 25.86452741 13.27843061 23.25720025 11.64453125 20.6484375 C11.09724365 19.77630615 10.54995605 18.9041748 9.98608398 18.00561523 C8.93282339 16.32668688 7.88147209 14.64655885 6.83227539 12.96508789 C6.35910889 12.21219482 5.88594238 11.45930176 5.3984375 10.68359375 C4.98255371 10.01900146 4.56666992 9.35440918 4.13818359 8.66967773 C2.97262103 6.84863084 2.97262103 6.84863084 1 5 C0.34644531 6.03447266 0.34644531 6.03447266 -0.3203125 7.08984375 C-2.20575141 10.06491944 -4.10285526 13.032378 -6 16 C-6.55945313 16.89074219 -7.11890625 17.78148438 -7.6953125 18.69921875 C-8.20835938 19.49972656 -8.72140625 20.30023438 -9.25 21.125 C-9.70890625 21.84945312 -10.1678125 22.57390625 -10.640625 23.3203125 C-12 25 -12 25 -15 26 C-13.71026258 22.54252773 -12.20666855 19.52927613 -10.21484375 16.42578125 C-9.68439453 15.59369141 -9.15394531 14.76160156 -8.60742188 13.90429688 C-7.78081055 12.62135742 -7.78081055 12.62135742 -6.9375 11.3125 C-5.84171306 9.60073061 -4.74662601 7.88851292 -3.65234375 6.17578125 C-3.16757568 5.42208252 -2.68280762 4.66838379 -2.18334961 3.8918457 C-0.96869037 2.01668656 -0.96869037 2.01668656 0 0 Z " fill="#636D6F" transform="translate(110,40)"/>
<path d="M0 0 C2.4294516 3.6441774 2.16179575 5.71241272 2 10 C2.66 10.33 3.32 10.66 4 11 C3.34 11 2.68 11 2 11 C2.66 12.98 3.32 14.96 4 17 C3.34 17 2.68 17 2 17 C2.34786708 18.97536745 2.34786708 18.97536745 3 21 C3.66 21.33 4.32 21.66 5 22 C5 22.99 5 23.98 5 25 C5.66 25.66 6.32 26.32 7 27 C6.01 27 5.02 27 4 27 C4.66 28.98 5.32 30.96 6 33 C6.78375 32.835 7.5675 32.67 8.375 32.5 C11.40666566 32.08183922 13.96762624 32.02422625 17 32.125 C21.42948799 32.19838007 24.1227759 31.22940386 28 29 C28.66 29.33 29.32 29.66 30 30 C29.505 31.485 29.505 31.485 29 33 C24.94951417 34.55124989 21.43943174 35.04807652 17.125 35.25 C12.09307825 35.65592367 9.06930085 37.50055263 5.10546875 40.52734375 C2.82932248 42.11937927 0.6047665 43.05901105 -2 44 C-1.67 44.66 -1.34 45.32 -1 46 C-5.29 46.99 -9.58 47.98 -14 49 C-14.33 48.34 -14.66 47.68 -15 47 C-14.67 46.34 -14.34 45.68 -14 45 C-14.66 45 -15.32 45 -16 45 C-16 44.34 -16 43.68 -16 43 C-14.515 42.505 -14.515 42.505 -13 42 C-13.99 41.67 -14.98 41.34 -16 41 C-12.25 38 -12.25 38 -10 38 C-10 37.34 -10 36.68 -10 36 C-12.97 36.495 -12.97 36.495 -16 37 C-14.625 35.5 -14.625 35.5 -13 34 C-12.34 34 -11.68 34 -11 34 C-11.185625 33.278125 -11.37125 32.55625 -11.5625 31.8125 C-12 29 -12 29 -11.4375 26.3125 C-11.2209375 25.1678125 -11.2209375 25.1678125 -11 24 C-11.66 23.34 -12.32 22.68 -13 22 C-12.34 22 -11.68 22 -11 22 C-11.33 21.01 -11.66 20.02 -12 19 C-14.01508358 18.26676204 -14.01508358 18.26676204 -16 18 C-14.68 17.01 -13.36 16.02 -12 15 C-12.66 14.34 -13.32 13.68 -14 13 C-13.01 12.34 -12.02 11.68 -11 11 C-10.26656572 7.93443402 -10.26656572 7.93443402 -10 5 C-9.34 5 -8.68 5 -8 5 C-7.06576355 8.01031744 -6.95550089 8.86650268 -8 12 C-7.34 12.33 -6.68 12.66 -6 13 C-6.185625 13.5775 -6.37125 14.155 -6.5625 14.75 C-7.04023546 17.20692525 -6.75729364 18.64397534 -6 21 C-5.01 21 -4.02 21 -3 21 C-3 21.66 -3 22.32 -3 23 C-3.99 23.33 -4.98 23.66 -6 24 C-5.34 24.66 -4.68 25.32 -4 26 C-5.32 26 -6.64 26 -8 26 C-8 26.66 -8 27.32 -8 28 C-7.34 28.33 -6.68 28.66 -6 29 C-6.33 30.32 -6.66 31.64 -7 33 C-5.35 32.01 -3.7 31.02 -2 30 C-2.33 29.34 -2.66 28.68 -3 28 C-3 25 -3 25 -2.00390625 22.78125 C-0.72000931 19.22430595 -0.843213 16.27148008 -0.9375 12.5 C-1.03756953 8.14915093 -1.05064874 4.23517321 0 0 Z " fill="#243435" transform="translate(59,103)"/>
<path d="M0 0 C3.38297674 1.391748 4.7828982 2.74666819 6.59375 5.90234375 C7.29346924 7.09899658 7.29346924 7.09899658 8.00732422 8.31982422 C8.49990723 9.18365723 8.99249023 10.04749023 9.5 10.9375 C10.57362573 12.77324507 11.64919441 14.607855 12.7265625 16.44140625 C13.2721582 17.37355957 13.81775391 18.30571289 14.37988281 19.26611328 C16.80113488 23.35188493 19.32703296 27.36739783 21.875 31.375 C22.36492432 32.147229 22.85484863 32.91945801 23.35961914 33.71508789 C25.46207784 37.02380298 27.57127832 40.32819898 29.68017578 43.6328125 C36.52732497 54.36252526 43.33761809 65.11018907 50.02172852 75.94238281 C54.28442003 82.85023532 58.57317986 89.74144754 62.875 96.625 C63.48142334 97.59614746 64.08784668 98.56729492 64.71264648 99.56787109 C65.59351929 100.97673584 65.59351929 100.97673584 66.4921875 102.4140625 C67.06420898 103.32961914 67.63623047 104.24517578 68.22558594 105.18847656 C69.47120569 107.16213603 70.73094634 109.12692021 72.00097656 111.08496094 C72.64260742 112.0752832 73.28423828 113.06560547 73.9453125 114.0859375 C74.53070801 114.98103027 75.11610352 115.87612305 75.71923828 116.79833984 C77 119 77 119 77 121 C67.1 121 57.2 121 47 121 C47 120.67 47 120.34 47 120 C55.91 120 64.82 120 74 120 C68.41777374 111.03460631 62.80047165 102.0941537 57.125 93.1875 C48.36674806 79.43859847 39.61227964 65.69486815 31.14160156 51.76635742 C26.37342434 43.94084681 21.47037992 36.20262458 16.56005859 28.46582031 C14.91429011 25.86452741 13.27843061 23.25720025 11.64453125 20.6484375 C11.09724365 19.77630615 10.54995605 18.9041748 9.98608398 18.00561523 C8.93282339 16.32668688 7.88147209 14.64655885 6.83227539 12.96508789 C6.12252563 11.83574829 6.12252563 11.83574829 5.3984375 10.68359375 C4.98255371 10.01900146 4.56666992 9.35440918 4.13818359 8.66967773 C2.97262103 6.84863084 2.97262103 6.84863084 1 5 C0.56429687 5.68964844 0.12859375 6.37929688 -0.3203125 7.08984375 C-2.20575141 10.06491944 -4.10285526 13.032378 -6 16 C-6.83917969 17.33611328 -6.83917969 17.33611328 -7.6953125 18.69921875 C-8.20835938 19.49972656 -8.72140625 20.30023438 -9.25 21.125 C-9.70890625 21.84945312 -10.1678125 22.57390625 -10.640625 23.3203125 C-12 25 -12 25 -15 26 C-13.71026258 22.54252773 -12.20666855 19.52927613 -10.21484375 16.42578125 C-9.68439453 15.59369141 -9.15394531 14.76160156 -8.60742188 13.90429688 C-8.05634766 13.04900391 -7.50527344 12.19371094 -6.9375 11.3125 C-5.84171306 9.60073061 -4.74662601 7.88851292 -3.65234375 6.17578125 C-3.16757568 5.42208252 -2.68280762 4.66838379 -2.18334961 3.8918457 C-0.96869037 2.01668656 -0.96869037 2.01668656 0 0 Z " fill="#1F3235" transform="translate(110,40)"/>
<path d="M0 0 C3.63 0.33 7.26 0.66 11 1 C11.66 2.65 12.32 4.3 13 6 C12.01 6.495 12.01 6.495 11 7 C11.763125 7.185625 12.52625 7.37125 13.3125 7.5625 C16.37558734 9.20089555 17.2964905 10.68840728 18.5078125 13.9140625 C19.37661181 17.59611672 19.22990699 21.24485248 19 25 C18.443125 24.98839844 17.88625 24.97679688 17.3125 24.96484375 C12.10221657 24.90323567 7.1562049 25.25000656 2 26 C2 24.68 2 23.36 2 22 C3.32 21.67 4.64 21.34 6 21 C6.2165625 20.071875 6.2165625 20.071875 6.4375 19.125 C7 17 7 17 8 15 C7.34 15 6.68 15 6 15 C6 14.34 6 13.68 6 13 C2.06924356 13.57452746 2.06924356 13.57452746 -1 16 C-0.67 10.72 -0.34 5.44 0 0 Z " fill="#EDAC0C" transform="translate(107,77)"/>
<path d="M0 0 C5.63470383 -0.5497272 8.38987758 1.04952165 13 4 C13.0816082 6.37570543 13.14077222 8.74855841 13.1875 11.125 C13.21263672 11.79015625 13.23777344 12.4553125 13.26367188 13.140625 C13.33332743 17.87720251 12.52056772 20.99881908 10 25 C7 27.4375 7 27.4375 4 29 C3.01 28.67 2.02 28.34 1 28 C-0.051875 29.2375 -0.051875 29.2375 -1.125 30.5 C-4 33 -4 33 -7.3125 33.3125 C-8.199375 33.209375 -9.08625 33.10625 -10 33 C-10 32.67 -10 32.34 -10 32 C-8.35 32 -6.7 32 -5 32 C-4.979375 30.72125 -4.95875 29.4425 -4.9375 28.125 C-4.92589844 27.40570313 -4.91429688 26.68640625 -4.90234375 25.9453125 C-4.87350758 23.91814596 -4.87350758 23.91814596 -6 22 C-5.071875 21.4225 -4.14375 20.845 -3.1875 20.25 C0.78344663 17.44697885 2.40854635 15.18290729 4.5625 10.875 C6 8 6 8 8 6 C6.29374499 3.21611025 5.52373261 2.14615794 2.3125 1.25 C1.1678125 1.12625 1.1678125 1.12625 0 1 C0 0.67 0 0.34 0 0 Z " fill="#182928" transform="translate(83,102)"/>
<path d="M0 0 C0.99 0 1.98 0 3 0 C3.2475 0.9075 3.495 1.815 3.75 2.75 C5.03981342 6.10351489 6.31971042 7.67708236 9 10 C7.35 9.67 5.7 9.34 4 9 C4.33 9.99 4.66 10.98 5 12 C7.01508358 12.73323796 7.01508358 12.73323796 9 13 C9 13.66 9 14.32 9 15 C6.03 14.505 6.03 14.505 3 14 C3.61875 14.61875 4.2375 15.2375 4.875 15.875 C6.25 17.25 7.625 18.625 9 20 C7.02 19.67 5.04 19.34 3 19 C3 19.99 3 20.98 3 22 C4.98 22.33 6.96 22.66 9 23 C9 23.66 9 24.32 9 25 C7.02 24.67 5.04 24.34 3 24 C4.63473516 27.12474627 4.63473516 27.12474627 7.125 27.6875 C7.74375 27.790625 8.3625 27.89375 9 28 C9 28.66 9 29.32 9 30 C7.02 29.67 5.04 29.34 3 29 C4.66954819 32.22404978 4.66954819 32.22404978 7.625 32.6875 C8.40875 32.790625 9.1925 32.89375 10 33 C10 33.66 10 34.32 10 35 C6.9370886 35.25524262 5.42358294 35.27835451 2.8125 33.5625 C1.9153125 32.7890625 1.9153125 32.7890625 1 32 C0.34 31.67 -0.32 31.34 -1 31 C-0.67 30.34 -0.34 29.68 0 29 C-2.31 29.33 -4.62 29.66 -7 30 C-5.60804085 27.2160817 -3.84424221 27.02101003 -1 26 C-1 25.67 -1 25.34 -1 25 C-2.98 25 -4.96 25 -7 25 C-5.6100869 22.22017379 -3.81341647 22.12536659 -1 21 C-0.67 20.34 -0.34 19.68 0 19 C-2.31 19.33 -4.62 19.66 -7 20 C-5.6100869 17.22017379 -3.81341647 17.12536659 -1 16 C-0.67 15.34 -0.34 14.68 0 14 C-2.31 14.33 -4.62 14.66 -7 15 C-5.60804085 12.2160817 -3.84424221 12.02101003 -1 11 C-1 10.34 -1 9.68 -1 9 C-2.65 9.33 -4.3 9.66 -6 10 C-5.195625 9.278125 -4.39125 8.55625 -3.5625 7.8125 C-0.97707928 4.97484311 -0.31957187 3.72833853 0 0 Z " fill="#283538" transform="translate(135,120)"/>
<path d="M0 0 C3.11666016 2.90048058 5.30727646 5.84019102 7.50390625 9.48046875 C8.15721924 10.55466064 8.81053223 11.62885254 9.48364258 12.7355957 C9.82328033 13.2996109 10.16291809 13.8636261 10.5128479 14.44473267 C12.28333952 17.38433043 14.07190984 20.31289059 15.859375 23.2421875 C16.21320755 23.82295547 16.5670401 24.40372345 16.93159485 25.00209045 C20.78748848 31.31712526 24.80965099 37.51804251 28.86328125 43.70703125 C34 51.62340037 34 51.62340037 34 54 C24.1 54 14.2 54 4 54 C4 53.67 4 53.34 4 53 C12.91 53 21.82 53 31 53 C25.93377309 44.86333254 20.84642086 36.74281167 15.69213867 28.66162109 C13.32266594 24.9464865 10.95909164 21.22761811 8.59619141 17.50830078 C7.59318384 15.93214603 6.58797473 14.35738788 5.57958984 12.78466797 C4.39995797 10.94426318 3.22974639 9.09827391 2.0625 7.25 C1.43472656 6.26515625 0.80695313 5.2803125 0.16015625 4.265625 C-0.22269531 3.51796875 -0.60554687 2.7703125 -1 2 C-0.67 1.34 -0.34 0.68 0 0 Z " fill="#1E3033" transform="translate(153,107)"/>
<path d="M0 0 C0.16846986 8.59196291 0.16846986 8.59196291 -1 12 C-3.48637707 14.02593687 -4.79554528 14.01703789 -8 13.75 C-13.10526316 12.47368421 -13.10526316 12.47368421 -15 11 C-15.75 7.875 -15.75 7.875 -16 5 C-10.49376557 1.50397814 -6.59229145 -0.7013076 0 0 Z " fill="#ECAC05" transform="translate(126,104)"/>
<path d="M0 0 C0.66 0.33 1.32 0.66 2 1 C2.309375 1.969375 2.61875 2.93875 2.9375 3.9375 C3.74744122 7.2680443 3.74744122 7.2680443 7 9 C7 9.66 7 10.32 7 11 C5.68 10.67 4.36 10.34 3 10 C3.33 10.99 3.66 11.98 4 13 C6.01508358 13.73323796 6.01508358 13.73323796 8 14 C8 14.66 8 15.32 8 16 C6.35 16 4.7 16 3 16 C3.33 16.66 3.66 17.32 4 18 C6.02463255 18.65213292 6.02463255 18.65213292 8 19 C8 19.66 8 20.32 8 21 C7.28972656 20.91621094 6.57945312 20.83242187 5.84765625 20.74609375 C4.92855469 20.64425781 4.00945312 20.54242188 3.0625 20.4375 C2.14597656 20.33308594 1.22945312 20.22867188 0.28515625 20.12109375 C-0.46894531 20.08113281 -1.22304687 20.04117188 -2 20 C-2.33 20.33 -2.66 20.66 -3 21 C-4.66617115 21.04063832 -6.33388095 21.042721 -8 21 C-8 20.34 -8 19.68 -8 19 C-6.02 18.34 -4.04 17.68 -2 17 C-3.06645115 15.70366379 -3.06645115 15.70366379 -5.5625 15.9375 C-6.366875 15.958125 -7.17125 15.97875 -8 16 C-8 15.34 -8 14.68 -8 14 C-7.21625 13.9175 -6.4325 13.835 -5.625 13.75 C-2.85250896 13.27193661 -2.85250896 13.27193661 -1.6875 10.9375 C-1.460625 10.298125 -1.23375 9.65875 -1 9 C-2.65 9.33 -4.3 9.66 -6 10 C-6 9.34 -6 8.68 -6 8 C-5.01 7.67 -4.02 7.34 -3 7 C-1.28432339 3.49705129 -1.28432339 3.49705129 0 0 Z " fill="#233133" transform="translate(155,135)"/>
<path d="M0 0 C2.64 0 5.28 0 8 0 C8 0.66 8 1.32 8 2 C10.64 1.34 13.28 0.68 16 0 C15 4 15 4 14 5 C12.33382885 5.04063832 10.66611905 5.042721 9 5 C9 5.66 9 6.32 9 7 C11.31 6.34 13.62 5.68 16 5 C16 6.65 16 8.3 16 10 C10.72 10 5.44 10 0 10 C0 8.35 0 6.7 0 5 C2.31 5.33 4.62 5.66 7 6 C7 5.34 7 4.68 7 4 C5.35 4 3.7 4 2 4 C1.34 2.68 0.68 1.36 0 0 Z " fill="#FAFAFA" transform="translate(138,149)"/>
<path d="M0 0 C3.5625 0.3125 3.5625 0.3125 5.5625 1.4375 C7.10547074 4.33057013 6.47506088 6.24890275 5.5625 9.3125 C2.32996204 11.46752531 1.31099077 11.78106135 -2.4375 11.3125 C-4.25 10.1875 -4.25 10.1875 -5.4375 8.3125 C-5.75 5.25 -5.75 5.25 -5.4375 2.3125 C-3.4375 0.3125 -3.4375 0.3125 0 0 Z " fill="#122327" transform="translate(140.4375,165.6875)"/>
<path d="M0 0 C1.5 1.375 1.5 1.375 3 3 C3 3.66 3 4.32 3 5 C4.32 4.67 5.64 4.34 7 4 C7.33 6.97 7.66 9.94 8 13 C2.04296875 16.22265625 2.04296875 16.22265625 0 17 C-0.99 16.67 -1.98 16.34 -3 16 C-2.34 13.36 -1.68 10.72 -1 8 C-1.66 7.67 -2.32 7.34 -3 7 C-2.34 7 -1.68 7 -1 7 C-1.309375 5.824375 -1.309375 5.824375 -1.625 4.625 C-1.74875 3.75875 -1.8725 2.8925 -2 2 C-1.34 1.34 -0.68 0.68 0 0 Z " fill="#DC8E06" transform="translate(97,108)"/>
<path d="M0 0 C0.82757813 0.58394531 0.82757813 0.58394531 1.671875 1.1796875 C1.18976563 1.56640625 0.70765625 1.953125 0.2109375 2.3515625 C-0.42070313 2.87234375 -1.05234375 3.393125 -1.703125 3.9296875 C-2.32960938 4.44015625 -2.95609375 4.950625 -3.6015625 5.4765625 C-5.41359506 7.063813 -5.41359506 7.063813 -6.2265625 9.12890625 C-7.78168346 12.02407825 -9.91182524 13.35173726 -12.578125 15.2421875 C-13.51140625 15.91378906 -14.4446875 16.58539063 -15.40625 17.27734375 C-18.31328004 19.1700224 -21.14136805 20.80686141 -24.328125 22.1796875 C-24.988125 21.8496875 -25.648125 21.5196875 -26.328125 21.1796875 C-25.84867432 20.83188232 -25.36922363 20.48407715 -24.87524414 20.12573242 C-22.70808259 18.54710473 -20.54934303 16.95733918 -18.390625 15.3671875 C-17.63587891 14.81998047 -16.88113281 14.27277344 -16.10351562 13.70898438 C-15.38486328 13.17724609 -14.66621094 12.64550781 -13.92578125 12.09765625 C-12.92816772 11.36712036 -12.92816772 11.36712036 -11.91040039 10.62182617 C-10.05143102 9.16316107 -10.05143102 9.16316107 -9.328125 6.1796875 C-10.318125 5.8496875 -11.308125 5.5196875 -12.328125 5.1796875 C-10.75765757 4.11872287 -9.17117983 3.08142515 -7.578125 2.0546875 C-6.25554687 1.18457031 -6.25554687 1.18457031 -4.90625 0.296875 C-2.328125 -0.8203125 -2.328125 -0.8203125 0 0 Z " fill="#3B6571" transform="translate(114.328125,134.8203125)"/>
<path d="M0 0 C0.66 0.33 1.32 0.66 2 1 C1.2575 1.5775 0.515 2.155 -0.25 2.75 C-2.93937435 4.85152042 -2.93937435 4.85152042 -4.8359375 6.94921875 C-7.20210951 9.19152977 -9.49358446 10.5491515 -12.375 12.0625 C-13.34050781 12.57039062 -14.30601563 13.07828125 -15.30078125 13.6015625 C-16.19152344 14.06304687 -17.08226563 14.52453125 -18 15 C-18.65355469 15.35835937 -19.30710937 15.71671875 -19.98046875 16.0859375 C-21.5625 16.9375 -21.5625 16.9375 -24 18 C-24.66 17.67 -25.32 17.34 -26 17 C-21.71 14.36 -17.42 11.72 -13 9 C-15.64 9.33 -18.28 9.66 -21 10 C-17.72291137 6.32966073 -14.28477792 4.30718811 -10 2 C-10.33 3.32 -10.66 4.64 -11 6 C-10.22914062 5.55527344 -9.45828125 5.11054688 -8.6640625 4.65234375 C-7.66117188 4.08644531 -6.65828125 3.52054687 -5.625 2.9375 C-4.62726563 2.36902344 -3.62953125 1.80054687 -2.6015625 1.21484375 C-1.74304688 0.81394531 -0.88453125 0.41304688 0 0 Z " fill="#3A646F" transform="translate(115,123)"/>
<path d="M0 0 C-0.13277344 0.61746094 -0.26554687 1.23492187 -0.40234375 1.87109375 C-1.59200827 7.57627325 -2.4386426 13.19930684 -3 19 C-5.66454856 17.66772572 -6.2920119 15.86568737 -7.40234375 13.1875 C-8.49762788 9.17861689 -8.22371746 5.11805842 -8 1 C-5.07175348 0.02391783 -3.04386724 -0.08226668 0 0 Z " fill="#D36709" transform="translate(61,99)"/>
<path d="M0 0 C6.15234375 -0.09765625 6.15234375 -0.09765625 8 0 C9 1 9 1 9.0625 3.375 C9.041875 4.24125 9.02125 5.1075 9 6 C9 6.99 9 7.98 9 9 C9 9.66 9 10.32 9 11 C7.68 10.34 6.36 9.68 5 9 C5 8.34 5 7.68 5 7 C4.01 7 3.02 7 2 7 C2 8.32 2 9.64 2 11 C1.34 11 0.68 11 0 11 C0 7.37 0 3.74 0 0 Z " fill="#112023" transform="translate(48,166)"/>
<path d="M0 0 C6.15234375 -0.09765625 6.15234375 -0.09765625 8 0 C9 1 9 1 9.0625 3.375 C9.041875 4.24125 9.02125 5.1075 9 6 C9 6.99 9 7.98 9 9 C9 9.66 9 10.32 9 11 C8.01 10.67 7.02 10.34 6 10 C5.67 9.34 5.34 8.68 5 8 C4.01 7.67 3.02 7.34 2 7 C2 8.32 2 9.64 2 11 C1.34 11 0.68 11 0 11 C0 7.37 0 3.74 0 0 Z " fill="#0C1A1E" transform="translate(150,166)"/>
<path d="M0 0 C0.66 1.32 1.32 2.64 2 4 C2.99 4 3.98 4 5 4 C5.33 3.34 5.66 2.68 6 2 C6.625 4.3125 6.625 4.3125 7 7 C6.01 8.485 6.01 8.485 5 10 C5.33 10.66 5.66 11.32 6 12 C5.67 12.66 5.34 13.32 5 14 C5.66 14.66 6.32 15.32 7 16 C3.375 19 3.375 19 0 19 C-0.33 16.69 -0.66 14.38 -1 12 C-0.34 11.67 0.32 11.34 1 11 C0.67 10.34 0.34 9.68 0 9 C1.32 9 2.64 9 4 9 C3.360625 8.773125 2.72125 8.54625 2.0625 8.3125 C0 7 0 7 -0.8125 4.5 C-1 2 -1 2 0 0 Z " fill="#AFB4B5" transform="translate(52,117)"/>
<path d="M0 0 C0.556875 0.37125 1.11375 0.7425 1.6875 1.125 C1.6875 1.785 1.6875 2.445 1.6875 3.125 C-0.89111025 4.15944249 -3.47424635 5.17772284 -6.0625 6.1875 C-6.79210937 6.48205078 -7.52171875 6.77660156 -8.2734375 7.08007812 C-8.98242188 7.35400391 -9.69140625 7.62792969 -10.421875 7.91015625 C-11.07124023 8.16676025 -11.72060547 8.42336426 -12.38964844 8.68774414 C-14.67882786 9.20830284 -16.10506664 8.84864304 -18.3125 8.125 C-16.58680361 6.99468397 -14.85678261 5.87096893 -13.125 4.75 C-12.16207031 4.12351563 -11.19914062 3.49703125 -10.20703125 2.8515625 C-3.3202821 -1.25632296 -3.3202821 -1.25632296 0 0 Z " fill="#3B6470" transform="translate(94.3125,143.875)"/>
<path d="M0 0 C1.32 0 2.64 0 4 0 C4.67119549 1.4562545 5.33681807 2.91507867 6 4.375 C6.556875 5.59316406 6.556875 5.59316406 7.125 6.8359375 C8 9 8 9 8 11 C7.01 10.67 6.02 10.34 5 10 C5 9.34 5 8.68 5 8 C3.02 8 1.04 8 -1 8 C-1 8.99 -1 9.98 -1 11 C-1.99 11 -2.98 11 -4 11 C-3.52269162 9.5410574 -3.04308958 8.08286504 -2.5625 6.625 C-2.29566406 5.81289062 -2.02882812 5.00078125 -1.75390625 4.1640625 C-1 2 -1 2 0 0 Z " fill="#202F33" transform="translate(63,166)"/>
<path d="M0 0 C0.66 0.33 1.32 0.66 2 1 C0.02 3.97 0.02 3.97 -2 7 C-0.02 6.34 1.96 5.68 4 5 C4 5.99 4 6.98 4 8 C1.5 10.1875 1.5 10.1875 -1 12 C-1 11.34 -1 10.68 -1 10 C-2.11375 10.680625 -3.2275 11.36125 -4.375 12.0625 C-6.2734375 13.22265625 -6.2734375 13.22265625 -8 14 C-8.66 13.67 -9.32 13.34 -10 13 C-8.75304528 9.25913583 -6.80733432 7.74204747 -4 5 C-2.64444707 3.35135455 -1.30368347 1.68996005 0 0 Z " fill="#193034" transform="translate(112,138)"/>
<path d="M0 0 C0.66 0.33 1.32 0.66 2 1 C1.67 1.99 1.34 2.98 1 4 C-3.04987857 5.55101732 -6.68694398 6.08526799 -11 6.375 C-15.95741822 6.76796608 -18.82753942 8.39221214 -23 11 C-23.66 10.67 -24.32 10.34 -25 10 C-24.360625 9.566875 -23.72125 9.13375 -23.0625 8.6875 C-20.73253997 7.08760823 -20.73253997 7.08760823 -20 4 C-17.02757617 2.82424124 -14.27865834 2.97763279 -11.125 3.125 C-6.63947836 3.19777395 -3.927057 2.25805778 0 0 Z " fill="#335862" transform="translate(87,132)"/>
<path d="M0 0 C2.69772659 0.35564416 3.76812651 0.7305916 5.5715332 2.82592773 C6.05968506 3.60395752 6.54783691 4.3819873 7.05078125 5.18359375 C7.85032227 6.45106445 7.85032227 6.45106445 8.66601562 7.74414062 C9.20935547 8.63294922 9.75269531 9.52175781 10.3125 10.4375 C10.87517578 11.32244141 11.43785156 12.20738281 12.01757812 13.11914062 C15.05328209 17.99781787 15.05328209 17.99781787 16 20 C15.67 20.66 15.34 21.32 15 22 C14.34 22 13.68 22 13 22 C11.79492188 20.41113281 11.79492188 20.41113281 10.46875 18.203125 C9.98792969 17.4090625 9.50710937 16.615 9.01171875 15.796875 C8.51285156 14.95640625 8.01398438 14.1159375 7.5 13.25 C7.00113281 12.425 6.50226563 11.6 5.98828125 10.75 C3.86351019 7.21820896 1.80474037 3.70788306 0 0 Z " fill="#1F3134" transform="translate(138,86)"/>
<path d="M0 0 C1.65 0 3.3 0 5 0 C5 0.66 5 1.32 5 2 C5.66 2 6.32 2 7 2 C6.25 4.9375 6.25 4.9375 5 8 C2.875 8.875 2.875 8.875 1 9 C0.67 10.32 0.34 11.64 0 13 C0 10.36 0 7.72 0 5 C-0.66 5 -1.32 5 -2 5 C-1.34 3.35 -0.68 1.7 0 0 Z " fill="#2F3727" transform="translate(108,90)"/>
<path d="M0 0 C2.31 0 4.62 0 7 0 C6.67 0.66 6.34 1.32 6 2 C4.68 1.67 3.36 1.34 2 1 C3.37691962 3.75383923 5.36720042 4.51483101 8 6 C7.125 9.875 7.125 9.875 6 11 C4.00041636 11.04080783 1.99954746 11.04254356 0 11 C-0.33 10.01 -0.66 9.02 -1 8 C1.97 8.495 1.97 8.495 5 9 C3.60804085 6.2160817 1.84424221 6.02101003 -1 5 C-0.67 3.35 -0.34 1.7 0 0 Z " fill="#2C383B" transform="translate(181,166)"/>
<path d="M0 0 C2.31 0 4.62 0 7 0 C6.67 0.66 6.34 1.32 6 2 C4.68 1.67 3.36 1.34 2 1 C2 1.99 2 2.98 2 4 C3.65 4.33 5.3 4.66 7 5 C7.625 6.875 7.625 6.875 8 9 C6 11 6 11 2.875 11.125 C1.451875 11.063125 1.451875 11.063125 0 11 C-0.33 10.01 -0.66 9.02 -1 8 C1.97 8.495 1.97 8.495 5 9 C3.60804085 6.2160817 1.84424221 6.02101003 -1 5 C-0.67 3.35 -0.34 1.7 0 0 Z " fill="#313C3F" transform="translate(114,166)"/>
<path d="M0 0 C0.66 0 1.32 0 2 0 C2.93423645 3.01031744 3.04449911 3.86650268 2 7 C2.66 7.33 3.32 7.66 4 8 C3.67 9.98 3.34 11.96 3 14 C0.03 14 -2.94 14 -6 14 C-5 12 -5 12 -2 10 C-2.66 9.34 -3.32 8.68 -4 8 C-3.01 7.34 -2.02 6.68 -1 6 C-0.26656572 2.93443402 -0.26656572 2.93443402 0 0 Z " fill="#485558" transform="translate(49,108)"/>
<path d="M0 0 C3.63 0 7.26 0 11 0 C11 0.99 11 1.98 11 3 C9.68 3 8.36 3 7 3 C7 5.97 7 8.94 7 12 C6.01 12 5.02 12 4 12 C4 8.7 4 5.4 4 2 C2.68 2 1.36 2 0 2 C0 1.34 0 0.68 0 0 Z " fill="#555E60" transform="translate(35,165)"/>
<path d="M0 0 C2.64 0 5.28 0 8 0 C8 0.33 8 0.66 8 1 C6.02 1 4.04 1 2 1 C2 1.99 2 2.98 2 4 C3.98 4 5.96 4 8 4 C8 4.66 8 5.32 8 6 C6.02 6 4.04 6 2 6 C2 6.99 2 7.98 2 9 C3.98 9 5.96 9 8 9 C8 9.66 8 10.32 8 11 C5.36 11 2.72 11 0 11 C0 7.37 0 3.74 0 0 Z " fill="#151E20" transform="translate(169,166)"/>
<path d="M0 0 C2.64 0 5.28 0 8 0 C8 0.33 8 0.66 8 1 C6.02 1 4.04 1 2 1 C2 1.99 2 2.98 2 4 C3.98 4 5.96 4 8 4 C8 4.66 8 5.32 8 6 C6.02 6 4.04 6 2 6 C2 6.99 2 7.98 2 9 C3.98 9 5.96 9 8 9 C8 9.66 8 10.32 8 11 C5.36 11 2.72 11 0 11 C0 7.37 0 3.74 0 0 Z " fill="#161F22" transform="translate(86,166)"/>
<path d="M0 0 C2.64 0 5.28 0 8 0 C8 0.66 8 1.32 8 2 C10.64 1.34 13.28 0.68 16 0 C15 4 15 4 14 5 C12.33382885 5.04063832 10.66611905 5.042721 9 5 C8.67 5.66 8.34 6.32 8 7 C7.67 6.34 7.34 5.68 7 5 C6.01 4.690625 5.02 4.38125 4 4.0625 C3.01 3.711875 2.02 3.36125 1 3 C0.67 2.01 0.34 1.02 0 0 Z " fill="#EDEFEF" transform="translate(138,149)"/>
<path d="M0 0 C0.99 0 1.98 0 3 0 C3.2475 0.9075 3.495 1.815 3.75 2.75 C5.03981342 6.10351489 6.31971042 7.67708236 9 10 C8.2575 9.814375 7.515 9.62875 6.75 9.4375 C3.99643202 8.99943237 2.61327611 9.21601717 0 10 C-3 10 -3 10 -6 9 C-5.195625 8.443125 -4.39125 7.88625 -3.5625 7.3125 C-0.75771784 4.78135513 -0.30618405 3.67420866 0 0 Z " fill="#2B383B" transform="translate(135,120)"/>
<path d="M0 0 C0.99 0.33 1.98 0.66 3 1 C4.1875 4.5625 4.1875 4.5625 5 8 C5.66 8 6.32 8 7 8 C7.33 6.02 7.66 4.04 8 2 C8.99 1.67 9.98 1.34 11 1 C10.52269162 2.4589426 10.04308958 3.91713496 9.5625 5.375 C9.29566406 6.18710938 9.02882813 6.99921875 8.75390625 7.8359375 C8 10 8 10 7 12 C6.01 12 5.02 12 4 12 C3.32645501 10.56570999 2.66140299 9.12742943 2 7.6875 C1.62875 6.88699219 1.2575 6.08648437 0.875 5.26171875 C0 3 0 3 0 0 Z " fill="#202E31" transform="translate(72,165)"/>
<path d="M0 0 C0.66 0.33 1.32 0.66 2 1 C2.309375 1.969375 2.61875 2.93875 2.9375 3.9375 C3.74744122 7.2680443 3.74744122 7.2680443 7 9 C7 9.66 7 10.32 7 11 C6.38125 10.814375 5.7625 10.62875 5.125 10.4375 C2.95839822 9.76313824 2.95839822 9.76313824 1 11 C1 10.34 1 9.68 1 9 C-1.31 9.33 -3.62 9.66 -6 10 C-6 9.34 -6 8.68 -6 8 C-5.01 7.67 -4.02 7.34 -3 7 C-1.28432339 3.49705129 -1.28432339 3.49705129 0 0 Z " fill="#2D3B3E" transform="translate(155,135)"/>
<path d="M0 0 C0.99 0 1.98 0 3 0 C3 3.3 3 6.6 3 10 C4.98 10 6.96 10 9 10 C9 10.66 9 11.32 9 12 C6.03 12 3.06 12 0 12 C0 8.04 0 4.08 0 0 Z " fill="#424D4F" transform="translate(97,165)"/>
<path d="M0 0 C2.125 0.9375 2.125 0.9375 4 2 C4 3.65 4 5.3 4 7 C1.625 7.625 1.625 7.625 -1 8 C-1.66 7.34 -2.32 6.68 -3 6 C-2.75 3.4375 -2.75 3.4375 -2 1 C-1.34 0.67 -0.68 0.34 0 0 Z " fill="#EBEDED" transform="translate(140,167)"/>
<path d="M0 0 C2.4294516 3.6441774 2.16179575 5.71241272 2 10 C2.66 10.33 3.32 10.66 4 11 C3.34 11 2.68 11 2 11 C2.66 12.98 3.32 14.96 4 17 C3.01 17 2.02 17 1 17 C0.67 17.66 0.34 18.32 0 19 C-0.8931507 12.41816638 -0.95494281 6.57849492 0 0 Z " fill="#152929" transform="translate(59,103)"/>
<path d="M0 0 C2.31 0 4.62 0 7 0 C7 0.66 7 1.32 7 2 C13.27 2 19.54 2 26 2 C26 2.66 26 3.32 26 4 C17.42 4 8.84 4 0 4 C0 2.68 0 1.36 0 0 Z " fill="#ECEEEE" transform="translate(157,155)"/>
<path d="M0 0 C-1.32 0.33 -2.64 0.66 -4 1 C-4.17942163 4.94727588 -4.09350689 7.5980513 -2 11 C-3.32 11 -4.64 11 -6 11 C-7 10 -7 10 -7.09765625 7.71484375 C-7.08605469 6.79832031 -7.07445312 5.88179688 -7.0625 4.9375 C-7.05347656 4.01839844 -7.04445312 3.09929687 -7.03515625 2.15234375 C-7.02355469 1.44207031 -7.01195312 0.73179688 -7 0 C-3.86650268 -1.04449911 -3.01031744 -0.93423645 0 0 Z " fill="#FD8428" transform="translate(60,100)"/>
<path d="M0 0 C1.32 0.66 2.64 1.32 4 2 C4 2.66 4 3.32 4 4 C-5.9 4 -15.8 4 -26 4 C-26 3.67 -26 3.34 -26 3 C-17.09 3 -8.18 3 1 3 C0.67 2.01 0.34 1.02 0 0 Z " fill="#031116" transform="translate(183,157)"/>
<path d="M0 0 C0.99 0 1.98 0 3 0 C3.53012738 1.28788008 4.0488329 2.58046678 4.5625 3.875 C4.99755859 4.95394531 4.99755859 4.95394531 5.44140625 6.0546875 C6 8 6 8 5 10 C4.01 10 3.02 10 2 10 C-1.07692308 4.58461538 -1.07692308 4.58461538 -0.6875 1.625 C-0.460625 1.08875 -0.23375 0.5525 0 0 Z " fill="#DFE0E0" transform="translate(52,111)"/>
<path d="M0 0 C5.28 0 10.56 0 16 0 C12.7188698 2.18742014 10.66915644 2.54442806 6.8125 3.125 C5.72582031 3.29257813 4.63914062 3.46015625 3.51953125 3.6328125 C2.68808594 3.75398438 1.85664062 3.87515625 1 4 C0.67 2.68 0.34 1.36 0 0 Z " fill="#F1D8C3" transform="translate(61,115)"/>
<path d="M0 0 C0.99 0 1.98 0 3 0 C3 3.96 3 7.92 3 12 C2.01 12 1.02 12 0 12 C0 8.04 0 4.08 0 0 Z " fill="#485457" transform="translate(162,165)"/>
<path d="M0 0 C0 0.66 0 1.32 0 2 C-2.8125 4.1875 -2.8125 4.1875 -6 6 C-6.99 5.67 -7.98 5.34 -9 5 C-9 3.66666667 -9 2.33333333 -9 1 C-5.57367167 -0.61798838 -3.61944899 -1.34053666 0 0 Z " fill="#CD7D0B" transform="translate(93,125)"/>
<path d="M0 0 C0 1.32 0 2.64 0 4 C-1.875 5.0625 -1.875 5.0625 -4 6 C-4.66 5.67 -5.32 5.34 -6 5 C-6.33 5.33 -6.66 5.66 -7 6 C-7.99 6 -8.98 6 -10 6 C-10 4.68 -10 3.36 -10 2 C-8.7090864 1.66376204 -7.41723903 1.33110751 -6.125 1 C-5.40570313 0.814375 -4.68640625 0.62875 -3.9453125 0.4375 C-2 0 -2 0 0 0 Z " fill="#4E4C2D" transform="translate(119,101)"/>
<path d="M0 0 C1.32 0 2.64 0 4 0 C4.33 1.32 4.66 2.64 5 4 C4.34 4 3.68 4 3 4 C2.2575 5.2375 2.2575 5.2375 1.5 6.5 C0.7575 7.7375 0.7575 7.7375 0 9 C-0.66 9 -1.32 9 -2 9 C-1.125 1.125 -1.125 1.125 0 0 Z " fill="#3A616C" transform="translate(123,118)"/>
<path d="M0 0 C0.99 0.33 1.98 0.66 3 1 C1.35 2.98 -0.3 4.96 -2 7 C-2.33 6.34 -2.66 5.68 -3 5 C-3.78375 5.515625 -4.5675 6.03125 -5.375 6.5625 C-6.24125 7.036875 -7.1075 7.51125 -8 8 C-8.66 7.67 -9.32 7.34 -10 7 C-8.4050992 5.80008401 -6.79873853 4.61538682 -5.1875 3.4375 C-3.84751953 2.44556641 -3.84751953 2.44556641 -2.48046875 1.43359375 C-1.66191406 0.96050781 -0.84335938 0.48742187 0 0 Z " fill="#39616C" transform="translate(114,143)"/>
<path d="M0 0 C3 0 6 0 9 0 C9 1.65 9 3.3 9 5 C8.236875 4.835 7.47375 4.67 6.6875 4.5 C3.96403764 3.90854604 3.96403764 3.90854604 1 4 C0.67 2.68 0.34 1.36 0 0 Z " fill="#FEC197" transform="translate(106,181)"/>
<path d="M0 0 C1.08667969 0.29197266 1.08667969 0.29197266 2.1953125 0.58984375 C2.74960938 0.74582031 3.30390625 0.90179688 3.875 1.0625 C3.875 1.3925 3.875 1.7225 3.875 2.0625 C2.658125 2.330625 1.44125 2.59875 0.1875 2.875 C-3.36869651 3.74359313 -6.00542425 5.13570321 -9.125 7.0625 C-9.785 6.7325 -10.445 6.4025 -11.125 6.0625 C-10.485625 5.629375 -9.84625 5.19625 -9.1875 4.75 C-6.85753997 3.15010823 -6.85753997 3.15010823 -6.125 0.0625 C-3.57797384 -1.21101308 -2.6967055 -0.73941925 0 0 Z " fill="#3A636F" transform="translate(73.125,135.9375)"/>
<path d="M0 0 C1.670625 0.061875 1.670625 0.061875 3.375 0.125 C3.705 1.445 4.035 2.765 4.375 4.125 C3.715 3.465 3.055 2.805 2.375 2.125 C2.045 2.785 1.715 3.445 1.375 4.125 C-1.6875 4.75 -1.6875 4.75 -4.625 5.125 C-4.955 4.135 -5.285 3.145 -5.625 2.125 C-3.625 0.125 -3.625 0.125 0 0 Z " fill="#FEC599" transform="translate(139.625,180.875)"/>
<path d="M0 0 C5.63470383 -0.5497272 8.38987758 1.04952165 13 4 C13 5.32 13 6.64 13 8 C12.34 8 11.68 8 11 8 C11 7.34 11 6.68 11 6 C10.01 6 9.02 6 8 6 C7.54625 5.360625 7.0925 4.72125 6.625 4.0625 C5.1337227 1.75235447 5.1337227 1.75235447 2.3125 1.25 C1.1678125 1.12625 1.1678125 1.12625 0 1 C0 0.67 0 0.34 0 0 Z " fill="#3E3B21" transform="translate(83,102)"/>
<path d="M0 0 C0.66 0 1.32 0 2 0 C2 0.66 2 1.32 2 2 C2.99 1.67 3.98 1.34 5 1 C5 1.99 5 2.98 5 4 C0.545 4.495 0.545 4.495 -4 5 C-4.33 4.34 -4.66 3.68 -5 3 C-4.67 2.34 -4.34 1.68 -4 1 C-3.01 1.33 -2.02 1.66 -1 2 C-0.67 1.34 -0.34 0.68 0 0 Z " fill="#FDB678" transform="translate(84,181)"/>
<path d="M0 0 C0.66 0 1.32 0 2 0 C2 0.66 2 1.32 2 2 C1.01 2.495 1.01 2.495 0 3 C0.33 3.66 0.66 4.32 1 5 C-3.29 5.99 -7.58 6.98 -12 8 C-12.33 7.34 -12.66 6.68 -13 6 C-12.31292969 5.81824219 -11.62585937 5.63648438 -10.91796875 5.44921875 C-10.01691406 5.19785156 -9.11585937 4.94648438 -8.1875 4.6875 C-7.29417969 4.44386719 -6.40085937 4.20023438 -5.48046875 3.94921875 C-2.92052162 2.96958544 -1.8341056 1.96629339 0 0 Z " fill="#50686F" transform="translate(57,144)"/>
<path d="M0 0 C3.4087928 1.3984791 4.87393835 2.85006933 6.75 6 C7.17796875 6.70125 7.6059375 7.4025 8.046875 8.125 C9 10 9 10 9 12 C5.37648747 10.79216249 4.84784764 9.70346858 2.8125 6.5625 C2.28269531 5.75941406 1.75289062 4.95632812 1.20703125 4.12890625 C0 2 0 2 0 0 Z " fill="#14272A" transform="translate(131,74)"/>
<path d="M0 0 C2.475 0.495 2.475 0.495 5 1 C5 2.32 5 3.64 5 5 C4.01 5.66 3.02 6.32 2 7 C0 4 0 4 0 0 Z " fill="#B5B3AF" transform="translate(63,130)"/>
<path d="M0 0 C0.75 1.75 0.75 1.75 1 4 C-0.625 6.25 -0.625 6.25 -3 8 C-5.75 8.25 -5.75 8.25 -8 8 C-8 7.34 -8 6.68 -8 6 C-6.02 5.67 -4.04 5.34 -2 5 C-1.855625 4.360625 -1.71125 3.72125 -1.5625 3.0625 C-1 1 -1 1 0 0 Z " fill="#343F42" transform="translate(146,169)"/>
<path d="M0 0 C2.40072955 2.88087546 4.47291037 5.56404834 6 9 C5.01 9.33 4.02 9.66 3 10 C1.35 7.03 -0.3 4.06 -2 1 C-1.34 0.67 -0.68 0.34 0 0 Z " fill="#2B3B3E" transform="translate(148,98)"/>
<path d="M0 0 C2.31 0 4.62 0 7 0 C6.67 0.66 6.34 1.32 6 2 C4.68 1.67 3.36 1.34 2 1 C2 1.99 2 2.98 2 4 C3.32 4.33 4.64 4.66 6 5 C1.25 6.125 1.25 6.125 -1 5 C-0.67 3.35 -0.34 1.7 0 0 Z " fill="#243336" transform="translate(114,166)"/>
<path d="M0 0 C0.33 0 0.66 0 1 0 C1 1.65 1 3.3 1 5 C-3.95 5 -8.9 5 -14 5 C-14 4.67 -14 4.34 -14 4 C-13.24074219 3.96261719 -12.48148438 3.92523438 -11.69921875 3.88671875 C-10.70535156 3.82097656 -9.71148437 3.75523437 -8.6875 3.6875 C-7.70136719 3.62949219 -6.71523437 3.57148438 -5.69921875 3.51171875 C-2.72852778 2.94853421 -1.88397791 2.27418693 0 0 Z " fill="#F1F3F3" transform="translate(153,154)"/>
<path d="M0 0 C1.33597652 0.80814651 2.668725 1.62163181 4 2.4375 C5.11375 3.11619141 5.11375 3.11619141 6.25 3.80859375 C6.8275 4.20175781 7.405 4.59492187 8 5 C8 5.33 8 5.66 8 6 C5.66705225 6.04241723 3.33297433 6.04092937 1 6 C0 5 0 5 -0.0625 2.4375 C-0.041875 1.633125 -0.02125 0.82875 0 0 Z " fill="#F5AA0A" transform="translate(107,70)"/>
<path d="M0 0 C2.475 0.495 2.475 0.495 5 1 C4.67 2.32 4.34 3.64 4 5 C2.68 5 1.36 5 0 5 C0 3.35 0 1.7 0 0 Z " fill="#C8CBCC" transform="translate(152,167)"/>
<path d="M0 0 C2.475 0.495 2.475 0.495 5 1 C4.67 2.32 4.34 3.64 4 5 C2.68 5 1.36 5 0 5 C0 3.35 0 1.7 0 0 Z " fill="#C7CBCC" transform="translate(50,167)"/>
<path d="M0 0 C0.20625 0.639375 0.4125 1.27875 0.625 1.9375 C1.89538209 4.34925077 1.89538209 4.34925077 5.125 4.75 C6.07375 4.8325 7.0225 4.915 8 5 C8 5.66 8 6.32 8 7 C3.25 6.125 3.25 6.125 1 5 C0.67 5.66 0.34 6.32 0 7 C-1.125 2.25 -1.125 2.25 0 0 Z " fill="#1A2C2F" transform="translate(136,138)"/>
<path d="M0 0 C-0.3125 1.875 -0.3125 1.875 -1 4 C-4.4352048 6.29013653 -5.985331 6.17842973 -10 6 C-10 5.67 -10 5.34 -10 5 C-8.35 5 -6.7 5 -5 5 C-4.814375 4.0409375 -4.814375 4.0409375 -4.625 3.0625 C-4.41875 2.381875 -4.2125 1.70125 -4 1 C-2 0 -2 0 0 0 Z " fill="#835518" transform="translate(83,129)"/>
<path d="M0 0 C0.33 0 0.66 0 1 0 C1.2475 0.9075 1.495 1.815 1.75 2.75 C3.03981342 6.10351489 4.31971042 7.67708236 7 10 C6.21625 9.814375 5.4325 9.62875 4.625 9.4375 C2.02910225 8.74037734 2.02910225 8.74037734 0 10 C0 6.7 0 3.4 0 0 Z " fill="#333E41" transform="translate(137,120)"/>
<path d="M0 0 C0.66 0.33 1.32 0.66 2 1 C1.67 3.97 1.34 6.94 1 10 C0.34 9.67 -0.32 9.34 -1 9 C-1.625 6.4375 -1.625 6.4375 -2 4 C-1.34 3.67 -0.68 3.34 0 3 C0 2.01 0 1.02 0 0 Z " fill="#985E2A" transform="translate(57,108)"/>
<path d="M0 0 C0 0.66 0 1.32 0 2 C-1.26418246 2.69965443 -2.53665402 3.38434763 -3.8125 4.0625 C-4.52019531 4.44535156 -5.22789063 4.82820312 -5.95703125 5.22265625 C-8 6 -8 6 -11 5 C-9.73461631 4.15841464 -8.46246221 3.32700252 -7.1875 2.5 C-6.47980469 2.0359375 -5.77210937 1.571875 -5.04296875 1.09375 C-3 0 -3 0 0 0 Z " fill="#375E69" transform="translate(82,140)"/>
<path d="M0 0 C2.625 -0.1875 2.625 -0.1875 5 0 C4.6875 1.9375 4.6875 1.9375 4 4 C3.01 4.33 2.02 4.66 1 5 C0.01 4.34 -0.98 3.68 -2 3 C-1.34 2.01 -0.68 1.02 0 0 Z " fill="#A6ABAC" transform="translate(44,133)"/>
<path d="M0 0 C0.66 0.33 1.32 0.66 2 1 C2.33 1.99 2.66 2.98 3 4 C2 5 2 5 -0.5625 5.0625 C-1.7690625 5.0315625 -1.7690625 5.0315625 -3 5 C-2.67 3.68 -2.34 2.36 -2 1 C-1.67 1.33 -1.34 1.66 -1 2 C-0.67 1.34 -0.34 0.68 0 0 Z " fill="#FDBC86" transform="translate(131,181)"/>
<path d="M0 0 C0.66 0.66 1.32 1.32 2 2 C0.75 3.5625 0.75 3.5625 -1 5 C-3.1875 4.6875 -3.1875 4.6875 -5 4 C-5 3.01 -5 2.02 -5 1 C-2.625 0.375 -2.625 0.375 0 0 Z " fill="#DDDFDF" transform="translate(121,166)"/>
<path d="M0 0 C3 1 3 1 4.6875 4.0625 C5.120625 5.031875 5.55375 6.00125 6 7 C5.34 7.66 4.68 8.32 4 9 C0 2.25 0 2.25 0 0 Z " fill="#17292C" transform="translate(172,139)"/>
<path d="M0 0 C2.97 0.495 2.97 0.495 6 1 C4.1875 3 4.1875 3 2 5 C1.01 5 0.02 5 -1 5 C-0.67 3.35 -0.34 1.7 0 0 Z " fill="#969D9E" transform="translate(53,131)"/>
<path d="M0 0 C-0.33 0.99 -0.66 1.98 -1 3 C-3.31 3 -5.62 3 -8 3 C-7 1 -7 1 -4.5625 -0.1875 C-2 -1 -2 -1 0 0 Z " fill="#3C484A" transform="translate(136,142)"/>
<path d="M0 0 C1.134375 0.020625 2.26875 0.04125 3.4375 0.0625 C3.4375 0.7225 3.4375 1.3825 3.4375 2.0625 C1.7875 2.7225 0.1375 3.3825 -1.5625 4.0625 C-1.5625 3.4025 -1.5625 2.7425 -1.5625 2.0625 C-2.5525 1.7325 -3.5425 1.4025 -4.5625 1.0625 C-3.5625 0.0625 -3.5625 0.0625 0 0 Z " fill="#CDD0D1" transform="translate(45.5625,138.9375)"/>
<path d="M0 0 C0 0.66 0 1.32 0 2 C0.66 2 1.32 2 2 2 C1.67 2.99 1.34 3.98 1 5 C1 4.34 1 3.68 1 3 C-1.31 3.33 -3.62 3.66 -6 4 C-6 3.34 -6 2.68 -6 2 C-3 0 -3 0 0 0 Z " fill="#233F45" transform="translate(81,137)"/>
<path d="M0 0 C1.65 0 3.3 0 5 0 C5.38218767 1.65614657 5.71395102 3.32457024 6 5 C5 6 5 6 2.4375 6.0625 C1.2309375 6.0315625 1.2309375 6.0315625 0 6 C0.99 5.34 1.98 4.68 3 4 C3 3.34 3 2.68 3 2 C2.01 1.34 1.02 0.68 0 0 Z " fill="#A9AEAF" transform="translate(43,126)"/>
<path d="M0 0 C0.99 0 1.98 0 3 0 C2.67 1.98 2.34 3.96 2 6 C0 5 0 5 -0.6875 3 C-0.790625 2.34 -0.89375 1.68 -1 1 C-0.67 0.67 -0.34 0.34 0 0 Z " fill="#DDD5CF" transform="translate(52,111)"/>
<path d="M0 0 C1.32 0 2.64 0 4 0 C4 1.65 4 3.3 4 5 C2.68 4.67 1.36 4.34 0 4 C0 2.68 0 1.36 0 0 Z " fill="#FDBA89" transform="translate(154,181)"/>
<path d="M0 0 C2.31 0.33 4.62 0.66 7 1 C7 1.33 7 1.66 7 2 C5.02 2 3.04 2 1 2 C1 2.99 1 3.98 1 5 C0.01 5 -0.98 5 -2 5 C-1.34 3.35 -0.68 1.7 0 0 Z " fill="#242D2F" transform="translate(61,172)"/>
<path d="M0 0 C0.99 0 1.98 0 3 0 C3.66 1.32 4.32 2.64 5 4 C3.35 4.33 1.7 4.66 0 5 C-0.33 4.34 -0.66 3.68 -1 3 C-0.67 2.01 -0.34 1.02 0 0 Z " fill="#828A8C" transform="translate(62,168)"/>
<path d="M0 0 C2.31 0 4.62 0 7 0 C6.67 1.32 6.34 2.64 6 4 C4.35 3.67 2.7 3.34 1 3 C0.67 2.01 0.34 1.02 0 0 Z " fill="#CCD0D0" transform="translate(138,149)"/>
<path d="M0 0 C0.99 0 1.98 0 3 0 C3.33 1.32 3.66 2.64 4 4 C2.68 4.33 1.36 4.66 0 5 C0 3.33333333 0 1.66666667 0 0 Z " fill="#525E60" transform="translate(54,134)"/>
<path d="M0 0 C1 3 1 3 -0.4375 6.1875 C-1.2109375 7.5796875 -1.2109375 7.5796875 -2 9 C-2.66 8.34 -3.32 7.68 -4 7 C-2.68 4.69 -1.36 2.38 0 0 Z " fill="#1C3033" transform="translate(126,121)"/>
</svg>
